<svg width="100%" height="100%" id="svg" viewBox="0 0 1440 390" xmlns="http://www.w3.org/2000/svg" class="transition duration-300 ease-in-out delay-150"><path d="M 0,400 L 0,100 C 118.83253588516746,114.20095693779905 237.66507177033492,128.4019138755981 325,120 C 412.3349282296651,111.59808612440192 468.17224880382787,80.59330143540669 562,78 C 655.8277511961721,75.40669856459331 787.645933014354,101.22488038277513 879,115 C 970.354066985646,128.77511961722487 1021.2440191387559,130.50717703349284 1108,126 C 1194.755980861244,121.49282296650718 1317.377990430622,110.74641148325358 1440,100 L 1440,400 L 0,400 Z" stroke="none" stroke-width="0" fill="#ff7d1a" fill-opacity="0.53" class="transition-all duration-300 ease-in-out delay-150 path-0"></path><path d="M 0,400 L 0,233 C 82.27751196172247,232.1196172248804 164.55502392344494,231.23923444976077 270,229 C 375.44497607655506,226.76076555023923 504.0574162679426,223.1626794258373 596,216 C 687.9425837320574,208.8373205741627 743.2153110047847,198.11004784688993 828,193 C 912.7846889952153,187.88995215311007 1027.0813397129186,188.39712918660288 1134,196 C 1240.9186602870814,203.60287081339712 1340.4593301435407,218.30143540669854 1440,233 L 1440,400 L 0,400 Z" stroke="none" stroke-width="0" fill="#ff7d1a" fill-opacity="1" class="transition-all duration-300 ease-in-out delay-150 path-1"></path></svg>